<svg xmlns="http://www.w3.org/2000/svg" width="205" height="16" viewBox="0 0 205 16" fill="none">
  <path d="M1.49831 2.34746L-0.00268555 2.10046V0.922465H4.31031L9.97231 9.47247L11.0363 11.6385V2.34746L9.40232 2.10046V0.922465H14.1143V2.10046L12.6513 2.34746V15.0395H10.3523L4.44331 6.05246L3.11331 3.54447V13.7095L5.03231 13.8995V15.0395H-0.00268555V13.8995L1.49831 13.7095V2.34746Z" fill="#C0BAB9"/>
  <path d="M23.5143 15.2485C21.4496 15.2485 19.9043 14.6025 18.8783 13.3105C17.8523 12.0185 17.3393 10.2578 17.3393 8.02847C17.3393 6.5718 17.6053 5.29246 18.1373 4.19046C18.6819 3.08846 19.4419 2.2398 20.4173 1.64446C21.3926 1.04913 22.5136 0.751465 23.7803 0.751465C25.8703 0.751465 27.4346 1.37213 28.4733 2.61346C29.5246 3.84213 30.0503 5.5648 30.0503 7.78147C30.0503 9.2508 29.7716 10.5555 29.2143 11.6955C28.6696 12.8228 27.9033 13.6968 26.9153 14.3175C25.9273 14.9381 24.7936 15.2485 23.5143 15.2485ZM23.7043 1.91046C22.6656 1.91046 21.8549 2.42346 21.2723 3.44947C20.6896 4.47546 20.3983 5.99546 20.3983 8.00947C20.3983 9.99813 20.6769 11.5118 21.2343 12.5505C21.8043 13.5765 22.6149 14.0895 23.6663 14.0895C24.6923 14.0895 25.4966 13.5511 26.0793 12.4745C26.6619 11.3851 26.9533 9.8208 26.9533 7.78147C26.9533 5.80546 26.6746 4.33613 26.1173 3.37347C25.5599 2.39813 24.7556 1.91046 23.7043 1.91046Z" fill="#C0BAB9"/>
  <path d="M33.6135 13.8995L35.1145 13.7095V2.34746L33.6895 2.08146V0.922465H36.4445C36.6852 0.922465 36.9512 0.916132 37.2425 0.903465C37.5338 0.890798 37.7555 0.878131 37.9075 0.865465C38.5662 0.814798 39.1108 0.789464 39.5415 0.789464C40.8462 0.789464 41.8912 0.922465 42.6765 1.18846C43.4618 1.45447 44.0318 1.8598 44.3865 2.40447C44.7412 2.94913 44.9185 3.6648 44.9185 4.55146C44.9185 5.42547 44.6842 6.23613 44.2155 6.98347C43.7468 7.7308 43.0692 8.2438 42.1825 8.52247C42.6892 8.7378 43.1388 9.13047 43.5315 9.70047C43.9242 10.2705 44.3422 11.0115 44.7855 11.9235C45.1022 12.5441 45.3428 12.9938 45.5075 13.2725C45.6848 13.5385 45.8558 13.6905 46.0205 13.7285L46.6475 13.9185V15.0395H43.4175C43.2148 15.0395 42.9995 14.8368 42.7715 14.4315C42.5562 14.0135 42.2712 13.3611 41.9165 12.4745C41.4985 11.4358 41.1375 10.6251 40.8335 10.0425C40.5295 9.4598 40.2065 9.0988 39.8645 8.95947H37.9075V13.7095L39.6555 13.8995V15.0395H33.6135V13.8995ZM39.6555 7.80047C40.3775 7.80047 40.9412 7.5408 41.3465 7.02147C41.7518 6.50213 41.9545 5.72313 41.9545 4.68447C41.9545 3.7598 41.7518 3.0758 41.3465 2.63246C40.9538 2.18913 40.2698 1.96747 39.2945 1.96747C38.9398 1.96747 38.6358 1.98646 38.3825 2.02446C38.1418 2.0498 37.9835 2.06246 37.9075 2.06246V7.76247C38.0595 7.7878 38.4268 7.80047 39.0095 7.80047H39.6555Z" fill="#C0BAB9"/>
  <path d="M51.0879 2.34746L49.5679 2.10046V0.922465H59.6949L59.9419 4.11446H58.6119L57.9849 2.23346L53.8809 2.06246V7.17346L56.5219 7.11647L56.8259 5.55847H58.0419V10.1565H56.8259L56.5219 8.52247L53.8809 8.46547V13.8235L58.4789 13.5955L59.5809 11.1635L61.0059 11.5625L60.5119 15.0395H49.5869V13.8995L51.0879 13.7095V2.34746Z" fill="#C0BAB9"/>
  <path d="M66.6161 2.34746L64.5641 2.10046V0.922465H70.4921L72.7531 9.09247L73.2851 11.3155L73.7411 9.09247L75.9831 0.922465H81.8541V2.10046L79.7831 2.34746L81.3031 13.6905L82.8421 13.8995V15.0395H76.7811V13.8995L78.4531 13.7095L77.6171 5.38747L77.2561 1.91046L76.5531 4.83647L73.7981 14.4505H71.7841L68.9721 5.33046L68.0031 1.91046L67.7181 5.38747L66.9961 13.7095L68.9151 13.8995V15.0395H63.6331V13.8995L65.2291 13.7095L66.6161 2.34746Z" fill="#C0BAB9"/>
  <path d="M91.9165 15.2485C89.8518 15.2485 88.3065 14.6025 87.2805 13.3105C86.2545 12.0185 85.7415 10.2578 85.7415 8.02847C85.7415 6.5718 86.0075 5.29246 86.5395 4.19046C87.0842 3.08846 87.8442 2.2398 88.8195 1.64446C89.7948 1.04913 90.9158 0.751465 92.1825 0.751465C94.2725 0.751465 95.8368 1.37213 96.8755 2.61346C97.9268 3.84213 98.4525 5.5648 98.4525 7.78147C98.4525 9.2508 98.1738 10.5555 97.6165 11.6955C97.0718 12.8228 96.3055 13.6968 95.3175 14.3175C94.3295 14.9381 93.1958 15.2485 91.9165 15.2485ZM92.1065 1.91046C91.0678 1.91046 90.2572 2.42346 89.6745 3.44947C89.0918 4.47546 88.8005 5.99546 88.8005 8.00947C88.8005 9.99813 89.0792 11.5118 89.6365 12.5505C90.2065 13.5765 91.0172 14.0895 92.0685 14.0895C93.0945 14.0895 93.8988 13.5511 94.4815 12.4745C95.0642 11.3851 95.3555 9.8208 95.3555 7.78147C95.3555 5.80546 95.0768 4.33613 94.5195 3.37347C93.9622 2.39813 93.1578 1.91046 92.1065 1.91046Z" fill="#C0BAB9"/>
  <path d="M103.536 2.34746L102.035 2.10046V0.922465H106.348L112.01 9.47247L113.074 11.6385V2.34746L111.44 2.10046V0.922465H116.152V2.10046L114.689 2.34746V15.0395H112.39L106.481 6.05246L105.151 3.54447V13.7095L107.07 13.8995V15.0395H102.035V13.8995L103.536 13.7095V2.34746Z" fill="#C0BAB9"/>
  <path d="M127.856 2.34746L126.45 2.10046V0.922465H132.226V2.10046L130.63 2.34746V7.11647H136.406V2.34746L134.943 2.10046V0.922465H140.643V2.10046L139.199 2.34746V13.7095L140.643 13.8995V15.0395H134.924V13.8995L136.406 13.7095V8.56046H130.63V13.7095L132.226 13.8995V15.0395H126.412V13.8995L127.856 13.7095V2.34746Z" fill="#C0BAB9"/>
  <path d="M148.927 0.846465H151.834L156.223 13.7095L157.325 13.8995V15.0395H151.72V13.8995L153.145 13.7095L152.404 11.2395H147.483L146.742 13.7285L148.281 13.8995V15.0395H143.436L143.417 13.8995L144.557 13.7095L148.927 0.846465ZM150.238 4.05747L149.896 2.57547L149.535 4.07647L147.844 9.90946H152.024L150.238 4.05747Z" fill="#C0BAB9"/>
  <path d="M161.622 2.34746L160.121 2.10046V0.922465H164.434L170.096 9.47247L171.16 11.6385V2.34746L169.526 2.10046V0.922465H174.238V2.10046L172.775 2.34746V15.0395H170.476L164.567 6.05246L163.237 3.54447V13.7095L165.156 13.8995V15.0395H160.121V13.8995L161.622 13.7095V2.34746Z" fill="#C0BAB9"/>
  <path d="M187.723 15.0395C187.533 15.0395 187.286 14.7988 186.982 14.3175C186.678 13.8235 186.253 13.0445 185.709 11.9805C185.24 11.0685 184.847 10.3338 184.531 9.77647C184.214 9.21913 183.91 8.7568 183.619 8.38946L181.928 10.3275V13.7095L183.562 13.9185V15.0395H177.653V13.8995L179.154 13.7095V2.34746L177.672 2.10046V0.922465H183.391V2.10046L181.928 2.34746V8.54147L186.925 2.34746L185.367 2.10046V0.922465H190.497V2.10046L188.92 2.34746L185.234 6.48947C185.677 6.8948 186.146 7.47113 186.64 8.21846C187.134 8.95313 187.735 9.9158 188.445 11.1065C188.964 11.9805 189.357 12.6201 189.623 13.0255C189.889 13.4181 190.091 13.6461 190.231 13.7095L191.124 13.9185V15.0395H187.723Z" fill="#C0BAB9"/>
  <path d="M198.991 15.2485C198.307 15.2485 197.693 15.1915 197.148 15.0775C196.604 14.9635 195.996 14.8115 195.324 14.6215C194.881 14.4948 194.583 14.4251 194.431 14.4125L194.602 10.8975H196.141L196.559 13.3485C196.724 13.5258 197.015 13.6841 197.433 13.8235C197.864 13.9628 198.352 14.0325 198.896 14.0325C199.745 14.0325 200.378 13.8488 200.796 13.4815C201.227 13.1015 201.442 12.5758 201.442 11.9045C201.442 11.4611 201.316 11.0811 201.062 10.7645C200.809 10.4351 200.461 10.1438 200.017 9.89046C199.574 9.62446 198.966 9.32047 198.193 8.97847C197.142 8.49713 196.268 7.92713 195.571 7.26847C194.887 6.59713 194.545 5.69146 194.545 4.55146C194.545 3.84213 194.729 3.20246 195.096 2.63246C195.464 2.0498 196.008 1.5938 196.73 1.26447C197.465 0.922465 198.358 0.751465 199.409 0.751465C200.03 0.751465 200.575 0.795798 201.043 0.884464C201.525 0.973131 202.044 1.09346 202.601 1.24547C202.931 1.33413 203.178 1.39113 203.342 1.41647L203.228 4.74146H201.708L201.309 2.40447C201.195 2.29046 200.967 2.1828 200.625 2.08146C200.283 1.96746 199.903 1.91046 199.485 1.91046C198.725 1.91046 198.149 2.0878 197.756 2.44246C197.376 2.78446 197.186 3.2468 197.186 3.82946C197.186 4.29813 197.326 4.70346 197.604 5.04546C197.896 5.38747 198.244 5.6788 198.649 5.91947C199.055 6.14747 199.694 6.4768 200.568 6.90746C201.278 7.24946 201.886 7.58513 202.392 7.91446C202.899 8.2438 203.336 8.67447 203.703 9.20647C204.071 9.7258 204.254 10.3401 204.254 11.0495C204.254 11.7461 204.077 12.4111 203.722 13.0445C203.38 13.6778 202.81 14.2035 202.012 14.6215C201.227 15.0395 200.22 15.2485 198.991 15.2485Z" fill="#C0BAB9"/>
</svg>